<?xml version="1.0" standalone="no"?><svg xmlns="http://www.w3.org/2000/svg" viewBox="0 0 1440 320"><path fill="#a2d9ff" fill-opacity="1" d="M0,160L17.1,176C34.3,192,69,224,103,245.3C137.1,267,171,277,206,277.3C240,277,274,267,309,261.3C342.9,256,377,256,411,245.3C445.7,235,480,213,514,197.3C548.6,181,583,171,617,176C651.4,181,686,203,720,208C754.3,213,789,203,823,197.3C857.1,192,891,192,926,202.7C960,213,994,235,1029,256C1062.9,277,1097,299,1131,293.3C1165.7,288,1200,256,1234,234.7C1268.6,213,1303,203,1337,192C1371.4,181,1406,171,1423,165.3L1440,160L1440,320L1422.9,320C1405.7,320,1371,320,1337,320C1302.9,320,1269,320,1234,320C1200,320,1166,320,1131,320C1097.1,320,1063,320,1029,320C994.3,320,960,320,926,320C891.4,320,857,320,823,320C788.6,320,754,320,720,320C685.7,320,651,320,617,320C582.9,320,549,320,514,320C480,320,446,320,411,320C377.1,320,343,320,309,320C274.3,320,240,320,206,320C171.4,320,137,320,103,320C68.6,320,34,320,17,320L0,320Z"></path></svg>