<?xml version="1.0" standalone="yes"?>
<svg width="500" height="500">
<path style="fill:#000000; stroke:none;" d="M0 0L0 500L500 500L500 0L0 0z"/>
<path style="fill:#c1a182; stroke:none;" d="M139 41L139 42L148 42L139 41z"/>
<path style="fill:#ec9642; stroke:none;" d="M103 147L106 142L109 142C109 116.468 103.281 90.3975 110 65L111 65L109 78C123.04 71.727 137.901 68.4557 152 62.7423C156.105 61.0787 162.952 57.3752 162.208 52C161.11 44.057 152.529 42.0819 146 42.0038C132.776 41.8457 118.604 43.6867 109.927 55.0394C96.4061 72.7321 100.058 96.3951 100.961 117C101.393 126.879 100.698 137.332 103 147z"/>
<path style="fill:#b9a895; stroke:none;" d="M152.667 42.3333L153.333 42.6667L152.667 42.3333z"/>
<path style="fill:#c05f1a; stroke:none;" d="M158 44L162.5 53L155 61L127 70.5L108 76L107 76L109 142L106 142L104 148L110 147C110 131.01 108.892 114.907 109.005 99C109.038 94.3361 108.663 85.1056 111.603 81.3403C116.444 75.1414 129.81 72.6412 137 70.3295C142.282 68.6312 159.82 61.3512 164.273 65.6072C167.735 68.9158 169.318 76.6287 171.229 81C180.359 101.879 176 123.443 176 146C181.729 142.495 180.922 130.206 180.996 124C181.194 107.361 185.774 81.2554 177.576 66.4244C174.779 61.3652 174.323 54.0164 168 53C167.11 47.5341 162.742 45.9749 158 44z"/>
<path style="fill:#a0877f; stroke:none;" d="M168.333 51.6667L168.667 52.3333L168.333 51.6667z"/>
<path style="fill:#c65918; stroke:none;" d="M114 60L118 56L114 60z"/>
<path style="fill:#a14e18; stroke:none;" d="M173 56C174.229 62.9146 179.251 68.1657 180.621 75C184.179 92.748 181.347 115.053 180.09 133C179.749 137.865 174.767 154.823 185.852 151.292C191.602 149.46 189 132.78 189 128C189 110.118 188.016 90.414 183.87 73C182.233 66.1272 180.594 58.2286 173 56z"/>
<path style="fill:#b4320d; stroke:none;" d="M112.333 61.6667L112.667 62.3333L112.333 61.6667z"/>
<path style="fill:#b8370f; stroke:none;" d="M111.333 63.6667L111.667 64.3333L111.333 63.6667z"/>
<path style="fill:#bd8d65; stroke:none;" d="M125 74L125 75L129 76C133.258 69.3551 145.438 69.6084 152 72L149 83C140.956 83.6248 140.499 90.3888 141 97L151 96C146.523 99.5729 142.768 98.1199 138.228 100.349C135.472 101.702 135.065 105.191 132.698 106.991C125.367 112.564 119.404 106.102 116 100L115 100C118.616 118.698 149.102 116.641 156.71 101.996C159.974 95.7134 159.763 91.6845 157.981 85.0146C157.442 82.993 154.514 79.359 155.341 77.3449C156.975 73.3651 164.208 76.3622 167 77C172.512 54.4461 134.752 69.7858 125 74z"/>
<path style="fill:#cc3f09; stroke:none;" d="M110 65L108 79L109 79L110 65z"/>
<path style="fill:#a0866f; stroke:none;" d="M182.333 66.6667L182.667 67.3333L182.333 66.6667z"/>
<path style="fill:#a48773; stroke:none;" d="M183 69L183 72L184 72L183 69z"/>
<path style="fill:#deb48a; stroke:none;" d="M129 73L132 77L132 79L117 82L117 78C105.016 81.6381 115.184 109.416 127.001 108.952C142.839 108.331 136.025 85.0616 149 83L152 72C143.88 68.0926 137.245 72.2801 129 73z"/>
<path style="fill:#a88a7a; stroke:none;" d="M184 73L184 76L185 76L184 73z"/>
<path style="fill:#a57350; stroke:none;" d="M168 74L169 82L156 80L158 84C163.195 83.5498 164.695 87.379 160 90C158.855 111.218 136.959 115.487 120 111L120 112C145.85 127.921 191.769 105.439 168 74z"/>
<path style="fill:#e18830; stroke:none;" d="M117 82L132 79L132 77C126.106 74.5167 117.638 73.996 117 82z"/>
<path style="fill:#d06b22; stroke:none;" d="M154 80L169 82C167.104 75.6095 155.503 71.3471 154 80z"/>
<path style="fill:#a05e34; stroke:none;" d="M111 80C107.899 90.4923 108.698 107.951 117.188 115.826C121.904 120.201 130.898 121.258 133.016 128.005C135.342 135.412 128.788 143.432 125 149C131.166 146.054 135.262 131.207 142.089 131.207C147.769 131.207 150.173 141.01 152.954 144.656C156.16 148.857 163.019 149.745 168 150L168 149C159.858 147.353 152.677 135.191 156.104 127.015C158.124 122.196 163.091 120.937 166.427 117.387C170.746 112.792 173.159 105.119 174 99C168.236 104.298 165.205 109.984 158 114.401C150.432 119.041 126.51 117.897 120.75 110.811C112.912 101.169 115.401 90.3903 111 80z"/>
<path style="fill:#8c6652; stroke:none;" d="M185 80L185 84L186 84L185 80z"/>
<path style="fill:#444248; stroke:none;" d="M123.264 84.1751C120.102 85.8357 122.362 91.0909 125.411 88.9144C127.666 87.305 126.209 82.6287 123.264 84.1751z"/>
<path style="fill:#585554; stroke:none;" d="M159 83L158 86L159 83z"/>
<path style="fill:#252220; stroke:none;" d="M160 83C156.162 94.123 168.691 85.886 160 83z"/>
<path style="fill:#d3c183; stroke:none;" d="M347 85L347 86L365 86L347 85z"/>
<path style="fill:#f3dc8f; stroke:none;" d="M337 87L340 128C346.023 128.051 350.258 129.176 355 133L356 133L397 104C382.61 83.5734 359.048 85.2599 337 87z"/>
<path style="fill:#c6baa0; stroke:none;" d="M336 88L336 94L337 94L336 88z"/>
<path style="fill:#7d1e02; stroke:none;" d="M176 89C175.749 97.5958 172.132 110.047 166.427 116.62C163.302 120.22 158.156 121.493 156.09 126.044C148.82 142.065 166.963 149.95 179 151C172.202 131.849 183.768 107.513 176 89z"/>
<path style="fill:#88674b; stroke:none;" d="M123 90L123 91L126 91L123 90z"/>
<path style="fill:#8d2200; stroke:none;" d="M109 92L110 124C118.755 126.536 122.406 135.077 125 143L131 142L133.092 127.019L114.228 111.575L109 92z"/>
<path style="fill:#4da7c0; stroke:none;" d="M215 105C222.267 102.728 229.295 100.575 237 101.044C243.054 101.412 247.219 106.576 252 101C239.503 92.8352 224.374 92.2579 215 105z"/>
<path style="fill:#303134; stroke:none;" d="M139 98L139 99C143.892 100.432 147.565 99.8928 151 96L139 98z"/>
<path style="fill:#84684e; stroke:none;" d="M139 97L139 98L144 98L139 97z"/>
<path style="fill:#957a68; stroke:none;" d="M187 98L187 105L188 105L187 98z"/>
<path style="fill:#308a9f; stroke:none;" d="M220 141C223.912 133.483 217.485 129.602 217.47 122C217.432 103.189 233.753 102.784 247 108L248 105C238.083 98.5483 225.469 100.534 215 105L220 99C205.776 105.634 201.322 137.197 220 141z"/>
<path style="fill:#bd94be; stroke:none;" d="M280 146C296.213 146.011 314.541 156.188 327.184 144.328C329.321 142.323 332.902 140.878 333.643 137.79C336.424 126.192 327.166 113.043 330 101C323.695 99.2838 318.438 102.807 313 105.771C299.086 113.355 281.72 129.211 280 146z"/>
<path style="fill:#ad7e34; stroke:none;" d="M251 102C252.481 115.647 261.771 124.814 251 138L256 141C262.319 131.328 265.739 106.533 251 102z"/>
<path style="fill:#785a66; stroke:none;" d="M329 102C329.036 114.906 330.626 135.26 338 146L339 146C338.792 135.937 338.059 107.562 329 102z"/>
<path style="fill:#d0a03a; stroke:none;" d="M250 103C243.142 111.16 249.031 113.231 249.772 122C250.143 126.398 247.926 130.23 246 134C253.145 138.269 255.163 133.948 256.115 127C257.392 117.68 255.414 110.81 250 103z"/>
<path style="fill:#386f80; stroke:none;" d="M218 117L219 117C226.842 106.794 233.857 105.967 245 111C244.386 97.0356 219.355 104.838 218 117z"/>
<path style="fill:#9e7133; stroke:none;" d="M386 111L388 118C397.1 116.969 401.912 112.894 398 104L386 111z"/>
<path style="fill:#c0b7a3; stroke:none;" d="M338 106L338 113L339 113L338 106z"/>
<path style="fill:#000000; stroke:none;" d="M230 107.558C209.926 112.792 217.751 144.393 238 138.811C257.899 133.325 249.947 102.357 230 107.558z"/>
<path style="fill:#9a836e; stroke:none;" d="M188 110L188 116L189 116L188 110z"/>
<path style="fill:#bea58e; stroke:none;" d="M100 112L100 125L101 125L100 112z"/>
<path style="fill:#c1591b; stroke:none;" d="M358 138C367.065 134.564 389.484 122.946 387 112C378.887 114.104 353.884 128.906 358 138z"/>
<path style="fill:#387582; stroke:none;" d="M206 117C206.001 127.162 207.087 139.611 217 145L219 141C210.175 136.311 208.396 126.222 208 117L206 117z"/>
<path style="fill:#969ca3; stroke:none;" d="M218.333 117.667L218.667 118.333L218.333 117.667z"/>
<path style="fill:#f0ab79; stroke:none;" d="M374 130L374 131L373 136L375 135L376.826 152.999L372 172L369 172L368 184L361 184C360.064 188.481 358.023 195.107 354.492 198.277C349.813 202.477 344.832 202.691 344 210C373.545 202.924 399 174.951 399 144C399 136.945 399.203 124.436 393.75 119.111C388.342 113.83 372.813 129.183 374 130z"/>
<path style="fill:#998263; stroke:none;" d="M261 118L261 127L262 127L261 118z"/>
<path style="fill:#76919a; stroke:none;" d="M217 120L217 125L218 125L217 120z"/>
<path style="fill:#a33409; stroke:none;" d="M110 124C110 130.096 112.586 143.379 107 147L107 148L111 151C118.455 148.637 126.202 150.049 130 142L125 143C123.005 135.014 119.196 125.475 110 124z"/>
<path style="fill:#afa4a2; stroke:none;" d="M336 126L336 129L337 129L336 126z"/>
<path style="fill:#966859; stroke:none;" d="M397 126L399 147L400 147L402 144L403 159L404 159C404 147.757 404.509 135.294 397 126z"/>
<path style="fill:#a5a9ad; stroke:none;" d="M206.333 127.667L206.667 128.333L206.333 127.667z"/>
<path style="fill:#c1b9b0; stroke:none;" d="M261.333 127.667L261.667 128.333L261.333 127.667z"/>
<path style="fill:#9f6b33; stroke:none;" d="M341 128C343.752 136.587 349.247 135.548 357 136C353.497 129.41 348.06 128.059 341 128z"/>
<path style="fill:#bd9e8d; stroke:none;" d="M189 129L189 137L190 137L189 129z"/>
<path style="fill:#b37e56; stroke:none;" d="M120 149L120 150C132.927 157.962 152.025 153.869 166 151C162.608 148.761 157.827 148.771 154.836 146.107C150.859 142.566 148.159 129.093 141.171 130.752C130.992 133.168 132.594 148.591 120 149z"/>
<path style="fill:#f2bc96; stroke:none;" d="M338 166L344 206L345 206C351.866 197.998 359.523 196.038 361 184L368 184L369 172L372 172C374.37 158.005 376.818 149.278 375 135L373 136L374 131C369.528 129.549 365.632 133.298 362 135.655C358.619 137.85 353.158 139.738 351.032 143.329C349.32 146.219 350.814 149.858 350.121 153C348.719 159.354 343.661 163.51 338 166z"/>
<path style="fill:#abaaa6; stroke:none;" d="M207.333 131.667L207.667 132.333L207.333 131.667z"/>
<path style="fill:#d39d6a; stroke:none;" d="M101 132L101 141L102 141L101 132z"/>
<path style="fill:#a6502e; stroke:none;" d="M255 140L251 137L250 137C242.122 144.071 236.889 144.674 227 143L227 142C234.851 142 242.96 141.902 247 134C242.769 135.85 238.83 139.664 234 139.765C230.106 139.847 225.891 135.807 222.174 137.816C218.41 139.852 216.228 144.954 220.153 147.775C230.291 155.061 249.683 151.299 255 140z"/>
<path style="fill:#cb7e5b; stroke:none;" d="M227 142L227 143C235.66 145.291 245.421 145.309 250 136L249 135L227 142z"/>
<path style="fill:#c6b5ab; stroke:none;" d="M224 136L225 137L224 136z"/>
<path style="fill:#a97f63; stroke:none;" d="M189 137L189 148L190 148L189 137z"/>
<path style="fill:#c7a18f; stroke:none;" d="M230 139L230 140L233 140L230 139z"/>
<path style="fill:#cc9f8b; stroke:none;" d="M235 139L235 140L238 140L235 139z"/>
<path style="fill:#562f4a; stroke:none;" d="M326 158L328 158L339 147C331.54 134.255 319.624 147.197 326 158z"/>
<path style="fill:#995235; stroke:none;" d="M400 144C395.205 167.246 386.4 185.736 366 199.48C359.348 203.962 351.998 206.312 345 210C351.848 221.455 367.256 210.139 375 204.335C388.208 194.435 400.367 178.862 402.79 162C403.651 156.012 402.05 149.991 402 144L400 144z"/>
<path style="fill:#a3dde9; stroke:none;" d="M279 145L277 154L278 154L279 152C280.644 158.148 282.252 163.535 281.961 170C281.734 175.025 279.33 179.98 280.637 185C287.885 212.827 319.712 211.957 342 211L338 170L337 170C331.445 176.012 323.364 174.581 316 174L319 171C308.906 166.397 307.895 160.852 311 151L279 145z"/>
<path style="fill:#312e49; stroke:none;" d="M281 146L281 147L287 147L281 146z"/>
<path style="fill:#4d6579; stroke:none;" d="M285 147L285 148L290 147L285 147z"/>
<path style="fill:#241d38; stroke:none;" d="M288 147L288 148L294 148L288 147z"/>
<path style="fill:#5e748b; stroke:none;" d="M291 148L291 149L297 148L291 148z"/>
<path style="fill:#b9996f; stroke:none;" d="M109.333 148.667L109.667 149.333L109.333 148.667z"/>
<path style="fill:#211e3e; stroke:none;" d="M296 148L296 149L301 149L296 148z"/>
<path style="fill:#54768a; stroke:none;" d="M300 149L300 150L305 150L300 149z"/>
<path style="fill:#d5b153; stroke:none;" d="M110 150L107 155C120.28 154.532 121.37 167.704 121 178C114.344 173.977 104.57 161.04 99.6373 175.038C98.8553 177.257 98.5645 179.715 98 182C103.354 180.434 103.935 165.098 111.255 174.028C112.198 175.178 112.885 176.625 113.449 177.991C114.112 179.598 114.52 181.333 115 183C120.865 182.259 128.14 180.326 133.999 181.243C142.119 182.513 143.936 187.464 152.996 183.891C161.124 180.686 163.159 167.992 171.996 166.542C182.588 164.805 174.047 180.711 180.318 182.119C182.823 182.682 185.862 180.184 187.995 179.18C189.427 178.506 191.22 178.048 192.381 176.915C199.398 170.07 182.74 160.129 179.432 157.263C177.264 155.384 177.194 152.123 174.686 150.573C168.999 147.059 161.835 152.329 156 152.985C139.397 154.853 125.666 150.195 110 150z"/>
<path style="fill:#313655; stroke:none;" d="M305 149L305 150L309 150L305 149z"/>
<path style="fill:#c7a695; stroke:none;" d="M188 150L189 151L188 150z"/>
<path style="fill:#456f7c; stroke:none;" d="M312 150L312 151L321 152C321.055 158.141 322.126 163.11 328 166L328 158C322.363 153.021 319.935 150.067 312 150z"/>
<path style="fill:#a35819; stroke:none;" d="M177 151C178.27 155.377 180.546 156.663 185 157L177 151z"/>
<path style="fill:#8bd7e4; stroke:none;" d="M319 171L316 174C324.073 175.02 336.787 176.772 338 166C327.709 167.825 321.247 162.512 321 152C304.493 148.937 305.83 166.654 319 171z"/>
<path style="fill:#8acbdc; stroke:none;" d="M278 152C273.003 163.793 275.834 180.154 282 191L283 191C279.557 178.928 286.367 162.47 278 152z"/>
<path style="fill:#e4c261; stroke:none;" d="M96 181L91 181L91 182C101.604 181.874 97.3273 170.256 106.174 168.792C111.731 167.872 116.218 176.026 121 178C122.046 168.11 120.36 152.993 107 155L108 153C102.314 156.064 104.886 159.963 103.064 165C100.906 170.966 96.9133 174.223 96 181z"/>
<path style="fill:#ab8137; stroke:none;" d="M177 154L185.471 161.025L194 177L199 176C195.255 163.273 187.424 159.736 177 154z"/>
<path style="fill:#efd578; stroke:none;" d="M103 156C96.7485 163.335 91.4464 172.343 90 182L96 181C97.7576 172.512 106.788 164.956 103 156z"/>
<path style="fill:#dfb487; stroke:none;" d="M243 175L235 177L235 168L234 168C232.056 182.425 223.146 188.456 214.325 199C210.367 203.731 207.745 209.264 202 212L203 217C212.15 215.601 218.631 202.619 224.594 196.25C232.52 187.784 246.371 187.827 253.566 178.895C257.342 174.209 255.6 167.331 258 162C252.57 154.079 244.154 169.406 243 175z"/>
<path style="fill:#8b674b; stroke:none;" d="M257 162C255.67 166.902 256.916 172.463 254.297 176.999C248.238 187.494 233.607 194.194 225.291 203.259C219.172 209.929 212.246 221.134 203 223C208.185 230.997 219.343 222.523 223.83 217.91C231.664 209.856 238.205 200.571 245.439 192C252.672 183.431 262.197 174.386 257 162z"/>
<path style="fill:#cb9d71; stroke:none;" d="M235 177L243 175L242 172L237 173L240 164C233.496 162.633 235 172.932 235 177z"/>
<path style="fill:#a5948b; stroke:none;" d="M258 163L258 172L259 172L258 163z"/>
<path style="fill:#ba8359; stroke:none;" d="M237 173L241 173L241 164C236.613 165.456 237.015 168.85 237 173z"/>
<path style="fill:#ab8439; stroke:none;" d="M142 186C145.456 197.751 155.175 215.416 163.244 224.682C165.429 227.191 176.617 229.318 178.353 225.527C180.041 221.842 175.854 214.674 174.884 211C172.129 200.555 169.68 189.472 173 179L174 179L178 188L182 184C176.912 179.339 180.769 170.606 176.397 167.18C172.929 164.462 168.031 167.34 165.553 169.939C157.779 178.094 154.482 185.361 142 186z"/>
<path style="fill:#c8afa8; stroke:none;" d="M401.333 166.667L401.667 167.333L401.333 166.667z"/>
<path style="fill:#677472; stroke:none;" d="M338 168L339 185L340 185L338 168z"/>
<path style="fill:#c3b2af; stroke:none;" d="M400.333 169.667L400.667 170.333L400.333 169.667z"/>
<path style="fill:#cb9033; stroke:none;" d="M101 182L90 182L90 183L113 184L113 183L108 176L111 173C104.527 166.586 101.723 176.659 101 182z"/>
<path style="fill:#bb6610; stroke:none;" d="M108 176C111.595 176.47 110.987 179.897 111 183L114 183C113.986 179.716 109.653 168.327 108 176z"/>
<path style="fill:#844a29; stroke:none;" d="M179 189C187.07 186.351 189.914 177.066 200 179C198.251 170.837 179.529 181.964 179 189z"/>
<path style="fill:#a9774f; stroke:none;" d="M188 200C187.339 197.226 185.959 194.742 185.237 191.985C183.848 186.686 189.149 180.291 194.896 182.586C202.793 185.738 204.625 203.124 212 203C209.645 197.343 203.447 179.611 196.895 178.412C184.551 176.153 177.429 193.076 188 200z"/>
<path style="fill:#b4b3b2; stroke:none;" d="M114 181C106.661 188.494 93.9958 178.228 88 187L137 183L137 181L114 181z"/>
<path style="fill:#c99d71; stroke:none;" d="M251 183L251 182C242.428 184.47 230.771 188.892 224.594 195.424C218.345 202.033 212.092 214.529 203 217L202 212L211 204C206.251 199.823 204.711 192.587 200.795 187.436C196.806 182.19 186.406 178.256 184.538 188.043C182.897 196.641 191.687 209.35 196.079 216C197.732 218.503 200.265 223.252 203.87 222.803C209.418 222.112 214.91 212.904 218.42 209.17C229.009 197.903 237.588 190.911 251 183z"/>
<path style="fill:#5c6165; stroke:none;" d="M133 183L133 184C144.749 193.814 137.423 197 126 197L126 198L128 198L128 199L125 200L115 210L127 215L125 225L113 233C122.933 240.668 141.282 236.668 153 235.285C156.087 234.921 165.022 236.513 166.264 232.682C167.559 228.686 162.113 222.292 160.306 219C155.017 209.372 145.212 181.85 133 183z"/>
<path style="fill:#747474; stroke:none;" d="M87 187L102 212L122 204.667L128 199L128 198L126 197L127 191L126 191L125 193L123 187L134 185L122 184.004L87 187z"/>
<path style="fill:#ac865f; stroke:none;" d="M171 183L171 194L172 194L171 183z"/>
<path style="fill:#274b4c; stroke:none;" d="M340 184L340 188L341 188L340 184z"/>
<path style="fill:#a8a8a8; stroke:none;" d="M123 187L125 193C131.41 189.297 132.995 189.592 139 193L139 195L134 192L127 194C128.883 196.904 138.804 199.542 140.183 194.682C143.137 184.269 128.377 184.731 123 187z"/>
<path style="fill:#353535; stroke:none;" d="M131 189L131 191L139 195L139 193L131 189z"/>
<path style="fill:#6191a2; stroke:none;" d="M340 188L340 195L341 195L342 188L340 188z"/>
<path style="fill:#ac825e; stroke:none;" d="M206 223C217.365 217.088 231.298 200.3 239 190C227.413 193.692 211.567 212.382 206 223z"/>
<path style="fill:#363636; stroke:none;" d="M127 191L131 195L131 191L127 191z"/>
<path style="fill:#727272; stroke:none;" d="M131 191L131 194L132 194L133 191L131 191z"/>
<path style="fill:#304448; stroke:none;" d="M341 191L343 210L344 210L341 191z"/>
<path style="fill:#e3c09a; stroke:none;" d="M89 192L82 220C89.264 216.957 95.2171 197.549 89 192z"/>
<path style="fill:#9faeb4; stroke:none;" d="M285 194L288 198L285 194z"/>
<path style="fill:#6198a0; stroke:none;" d="M341 197L341 202L342 202L341 197z"/>
<path style="fill:#d8ad83; stroke:none;" d="M92 198C89.9476 205.232 88.6572 215.839 82 220L82 216L81 216C81.0174 222.065 81.1648 225.773 88 226L88 223C96.3937 222.338 110.873 221.494 114 212C109.066 214.289 104.469 217.693 102 211L92 217L94 198L92 198z"/>
<path style="fill:#bb7f50; stroke:none;" d="M95 201L92 217L101 211L95 201z"/>
<path style="fill:#537b8b; stroke:none;" d="M291 201C298.747 211.907 312.769 218.423 326 219L326 218L291 201z"/>
<path style="fill:#a48369; stroke:none;" d="M343 201L343 204L344 204L343 201z"/>
<path style="fill:#367a91; stroke:none;" d="M342 206L342 211L322 212.91L304 209L304 210C313.637 215.501 324.747 219.68 336 218.91C340.581 218.597 346.387 218.86 348 214L342 206z"/>
<path style="fill:#c1beb5; stroke:none;" d="M232 207L233 208L232 207z"/>
<path style="fill:#9d785e; stroke:none;" d="M102 212L103 216L115 208L102 212z"/>
<path style="fill:#43413e; stroke:none;" d="M105 216L116 212L116 216L119 215L119 220L121 225L127 215C118.285 211.652 112.535 207.152 105 216z"/>
<path style="fill:#3e4e49; stroke:none;" d="M344 210L347 215L344 210z"/>
<path style="fill:#9d795f; stroke:none;" d="M114 212L106 223L110 222C110.815 218.46 113.633 218.034 117 218C108.473 225.672 97.4747 230.85 86 232L86 233C95.9233 236.617 119.549 235.518 125 225L115 229L115 228L122 221L121 221L111 226L111 225C113.677 223.725 124.151 215.853 116 216L116 212L114 212z"/>
<path style="fill:#61b2c7; stroke:none;" d="M318 212L318 213L330 213L318 212z"/>
<path style="fill:#bab7b4; stroke:none;" d="M348 215L348 217L350 217L348 215z"/>
<path style="fill:#ae998b; stroke:none;" d="M352.667 215.333L353.333 215.667L352.667 215.333z"/>
<path style="fill:#61321e; stroke:none;" d="M109 220L109 221L115 217L109 220z"/>
<path style="fill:#c19975; stroke:none;" d="M106 223C104.949 218.12 92.3967 222.538 88 223L88 226L82 224L81 224C84.2849 240.223 110.794 225.926 117 218L106 223z"/>
<path style="fill:#8ca3a9; stroke:none;" d="M339 218L339 219L342 219L339 218z"/>
<path style="fill:#6a4933; stroke:none;" d="M111 225L111 226L122 221L111 225z"/>
<path style="fill:#c09369; stroke:none;" d="M112 226L112 227L121 221L112 226z"/>
<path style="fill:#6a3827; stroke:none;" d="M115 228L115 229L122 225L115 228z"/>
<path style="fill:#a38f82; stroke:none;" d="M206 226L206 227L211 227L206 226z"/>
<path style="fill:#2d444e; stroke:none;" d="M165 227C167.497 231.544 172.152 231.791 177 232C175.954 225.733 170.18 227 165 227z"/>
<path style="fill:#3b5e72; stroke:none;" d="M177 230L167 231C163.702 236.982 153.183 235.219 147 236L144 272C132.309 267.214 126.399 293.605 124.92 302.001C122.701 314.597 122.138 327.502 119.725 340C116.52 356.606 110.632 372.919 108.17 390C106.92 398.671 109.311 416.725 98 418C96.5124 421.717 94.9988 423.354 91 424L91 425L116 426L121 416L121 415L116 415L116 414C120.636 412.37 119.795 408.272 120.09 404C120.711 394.995 121.384 385.704 123.125 376.83C127.693 353.547 128.342 329.484 132.576 306C133.745 299.514 133.268 291.35 135.839 285.285C138.548 278.893 144.441 277.042 148 272C152.927 279.574 152 287.285 152 296L153 296C153 282.267 152.642 274.014 168 276L168 281C176.053 285.927 171.374 305.644 172.17 314C175.374 347.649 176 382.173 176 416L180 416L180 417L169 418C167.87 422.223 166.335 424.099 162 425L162 426C169.123 426 186.469 427.957 190.682 420.775C193.263 416.375 191.411 410.697 191.09 406C190.368 395.47 190.273 384.533 190.015 374C189.148 338.632 191.616 303.096 186.421 268C184.74 256.642 183.782 239.507 177 230z"/>
<path style="fill:#9b938c; stroke:none;" d="M102 233L102 234L113 234L102 233z"/>
<path style="fill:#af883f; stroke:none;" d="M366 283L381 283L381 251L378 252L378 234L366.603 234.603L365.91 248L366 283z"/>
<path style="fill:#4b7990; stroke:none;" d="M106 340L103.384 352L100 384L97 384L94 402L92 414L105 416C112.053 378.145 118.309 340.653 124.92 303C126.534 293.807 131.882 269.489 144 272L147 236C138.756 236 130.202 237.975 122 236.857C119.328 236.492 115.254 233.483 112.854 235.661C109.823 238.412 106.141 252.883 107.639 256.701C108.976 260.11 112.862 260.924 113.721 265.005C118.84 289.297 103.308 315.76 106 340z"/>
<path style="fill:#c49a46; stroke:none;" d="M378 234L378 252L381 251L381 283L392 283L392 250L379 250L378 234z"/>
<path style="fill:#678f9d; stroke:none;" d="M327 243L327 244L339 244L327 243z"/>
<path style="fill:#2f8ba4; stroke:none;" d="M327 244L327 284L338.397 282.972L339.576 272L339 244L327 244z"/>
<path style="fill:#5c8d9b; stroke:none;" d="M339 244L339 272L340 272L339 244z"/>
<path style="fill:#8ba1aa; stroke:none;" d="M326 245L326 258L327 258L326 245z"/>
<path style="fill:#777f88; stroke:none;" d="M183.333 251.667L183.667 252.333L183.333 251.667z"/>
<path style="fill:#879498; stroke:none;" d="M184.333 255.667L184.667 256.333L184.333 255.667z"/>
<path style="fill:#659bb7; stroke:none;" d="M106 258C102.877 297.511 92.1362 336.942 85.5864 376C83.5985 387.854 77.7528 403.335 78.1019 414.999C78.3968 424.855 95.5443 427.994 98 418L105 417L105 416L92 414L94 402L97 384L100 384L103.384 353L106 340C104.723 320.969 110.697 299.02 113.421 280C114.657 271.366 116.373 260.312 106 258z"/>
<path style="fill:#5e8fa2; stroke:none;" d="M314 258L314 259L326 259L326 283L327 283L327 258L314 258z"/>
<path style="fill:#308ea8; stroke:none;" d="M314 259L314 284L326 284L326 259L314 259z"/>
<path style="fill:#869299; stroke:none;" d="M185.333 260.667L185.667 261.333L185.333 260.667z"/>
<path style="fill:#2a5164; stroke:none;" d="M327 260L327 283L328 283L327 260z"/>
<path style="fill:#c39945; stroke:none;" d="M378 260C376.943 263.492 375.582 264.432 372 265L372 266L374 266L374 267L368 266L368 282L379 282L378 260z"/>
<path style="fill:#c7bba3; stroke:none;" d="M392 264L392 283L393 283L392 264z"/>
<path style="fill:#617279; stroke:none;" d="M186 265L186 269L187 269L186 265z"/>
<path style="fill:#2c4b5f; stroke:none;" d="M148 272C143.735 276.137 139.217 277.91 136.264 283.579C133.023 289.801 133.675 299.121 132.389 306C127.983 329.565 127.239 353.547 122.869 377C121.264 385.614 123.734 409.482 116 414L116 415L121 415L121 416C117.071 418.062 116.236 420.684 116 425C125.444 422.196 124.084 398.642 125.424 390L138.59 306C139.995 297.011 140.447 280.947 149 276L151 304L152 304C152 294.358 154.975 279.552 148 272z"/>
<path style="fill:#69767a; stroke:none;" d="M187 272L187 276L188 276L187 272z"/>
<path style="fill:#476f88; stroke:none;" d="M152 376L153 376L154 284C157.513 285.472 159.452 287.13 160 291C167.941 298.008 163.98 313.375 165.129 322.91C167.245 340.465 166.698 358.22 168.055 375.961C169.073 389.279 172 402.118 172 416L176 416C176 381.818 175.462 346.955 172.134 313C171.463 306.145 175.844 283.294 168 281L168 276C150.348 272.078 153.48 286.372 151.95 300C149.171 324.749 152 350.991 152 376z"/>
<path style="fill:#707984; stroke:none;" d="M149 277L149 280L150 280L149 277z"/>
<path style="fill:#6f7880; stroke:none;" d="M143.333 281.667L143.667 282.333L143.333 281.667z"/>
<path style="fill:#677b84; stroke:none;" d="M188 281L188 286L189 286L188 281z"/>
<path style="fill:#a29580; stroke:none;" d="M367 283L367 284L378 284L367 283z"/>
<path style="fill:#9b8b75; stroke:none;" d="M381 283L381 284L391 284L381 283z"/>
<path style="fill:#53829c; stroke:none;" d="M154 284C154 319.623 152 355.385 152 391C152 398.319 147.452 417.1 151.858 422.57C154.095 425.347 158.768 425.966 162 427L169 418L180 417L180 416L172 416C172 401.794 169.076 388.618 168.055 374.985C166.726 357.252 167.189 339.508 165.129 321.961C164.169 313.789 168.159 295.767 160 291C159.786 286.754 158.03 285.124 154 284z"/>
<path style="fill:#7d888f; stroke:none;" d="M142.333 286.667L142.667 287.333L142.333 286.667z"/>
<path style="fill:#717d83; stroke:none;" d="M150 286L150 294L151 294L150 286z"/>
<path style="fill:#6a7177; stroke:none;" d="M141 290L141 293L142 293L141 290z"/>
<path style="fill:#626e76; stroke:none;" d="M189 294L189 310L190 310L189 294z"/>
<path style="fill:#67747f; stroke:none;" d="M140 295L140 298L141 298L140 295z"/>
<path style="fill:#667279; stroke:none;" d="M139 300L139 303L140 303L139 300z"/>
<path style="fill:#62737e; stroke:none;" d="M138 306L138 309L139 309L138 306z"/>
<path style="fill:#8c959d; stroke:none;" d="M136 318L136 322L137 322L136 318z"/>
<path style="fill:#8e979c; stroke:none;" d="M151 323L151 394L152 394L152 345L151 323z"/>
<path style="fill:#8c9195; stroke:none;" d="M135 324L135 328L136 328L135 324z"/>
<path style="fill:#697585; stroke:none;" d="M134 331L134 335L135 335L134 331z"/>
<path style="fill:#7e8990; stroke:none;" d="M190 335L190 353L191 353L190 335z"/>
<path style="fill:#7e8992; stroke:none;" d="M133 337L133 341L134 341L133 337z"/>
<path style="fill:#5a6d7c; stroke:none;" d="M132 344L132 348L133 348L132 344z"/>
<path style="fill:#63707b; stroke:none;" d="M131 351L131 355L132 355L131 351z"/>
<path style="fill:#5a676f; stroke:none;" d="M190 353L190 380L191 380L190 353z"/>
<path style="fill:#677782; stroke:none;" d="M130 358L130 362L131 362L130 358z"/>
<path style="fill:#868e94; stroke:none;" d="M129 364L129 368L130 368L129 364z"/>
<path style="fill:#637179; stroke:none;" d="M127 377L127 381L128 381L127 377z"/>
<path style="fill:#818b93; stroke:none;" d="M126 383L126 387L127 387L126 383z"/>
<path style="fill:#798388; stroke:none;" d="M125 389L125 393L126 393L125 389z"/>
<path style="fill:#8f8f8f; stroke:none;" d="M151 395L151 412L152 412L151 395z"/>
<path style="fill:#5f6e77; stroke:none;" d="M124 396L124 400L125 400L124 396z"/>
<path style="fill:#636f77; stroke:none;" d="M122 409L122 417L123 417L122 409z"/>
<path style="fill:#7c848b; stroke:none;" d="M191.333 419.667L191.667 420.333L191.333 419.667z"/>
<path style="fill:#c99c72; stroke:none;" d="M89 424L89 440L98 441L94 425L89 424z"/>
<path style="fill:#a97c58; stroke:none;" d="M94 425L98 441L101 441C100.87 434.915 99.2598 428.613 94 425z"/>
<path style="fill:#805d43; stroke:none;" d="M163 426L163 427C171.029 427.724 179.346 432.318 180 441L183 441L183 425L163 426z"/>
<path style="fill:#866248; stroke:none;" d="M96 426L101 441L108 441L108 442L103.686 453.181L88 461C91.0698 460.975 94 460.819 97 460.101C99.6999 459.455 102.452 458.644 104.999 457.532C118.122 451.803 107.592 436.403 112 426L96 426z"/>
<path style="fill:#9a6e51; stroke:none;" d="M162 426L162 441L163 441L163 432C169.211 432.779 173.506 435.468 174 442L184 443L184 440L183 440L180 441C179.666 430.698 170.558 428.222 162 426z"/>
<path style="fill:#8a8684; stroke:none;" d="M110 428L110 438L111 438L110 428z"/>
<path style="fill:#c79a71; stroke:none;" d="M163 432L163 442L174 442C173.772 434.995 169.744 432.434 163 432z"/>
<path style="fill:#d8cfbe; stroke:none;" d="M78 458L93 448L84 446L84 445L96 442C83.8402 435.406 79.7159 448.763 78 458z"/>
<path style="fill:#c0b5a1; stroke:none;" d="M94 444L98 445L98 446L92 445L92 446L94 447L81 457L81 458C89.0606 457.971 100.491 449.256 102 441L94 444z"/>
<path style="fill:#897c6b; stroke:none;" d="M102 441L94 457C106.567 454.373 102.153 449.774 108 442L102 441z"/>
<path style="fill:#d8d0be; stroke:none;" d="M162 441C162 445.059 160.882 451.171 163.028 454.786C168.417 463.865 178.595 457.127 181 450L171 449L169 446L176 444L176 443L162 441z"/>
<path style="fill:#aca595; stroke:none;" d="M161 442L161 453L162 453L161 442z"/>
<path style="fill:#b8a895; stroke:none;" d="M166 442L166 443L181 444L166 442z"/>
<path style="fill:#9f927f; stroke:none;" d="M180 442C180 445.102 176.633 444 174 444L174 445L182 445L182 448L176 448L176 449L183 449L180 460C188.57 458.213 188.538 443.823 180 442z"/>
<path style="fill:#d4a576; stroke:none;" d="M84 445L84 446L94 447L94 446L92 446L92 445L98 446C93.7895 442.338 88.8001 442.502 84 445z"/>
<path style="fill:#b58258; stroke:none;" d="M169 446L171 449L182 448L182 445L169 446z"/>
<path style="fill:#615e5b; stroke:none;" d="M186 448L187 459L188 459L186 448z"/>
<path style="fill:#ac9c8a; stroke:none;" d="M89 458C93.9124 456.941 95.8781 453.319 98 449C92.9669 450.508 90.5084 452.967 89 458z"/>
<path style="fill:#c5b39b; stroke:none;" d="M180 449C179.427 454.778 175.788 458.554 170 459L170 460L180 460L183 449L180 449z"/>
<path style="fill:#bc7c50; stroke:none;" d="M161 453C162.059 459.857 171.743 467.288 177 460C170.316 459.843 165.99 457.273 161 453z"/>
<path style="fill:#ab7249; stroke:none;" d="M79 457C80.6087 461.847 86.2942 462.174 89 458L79 457z"/>
<path style="fill:#864f2f; stroke:none;" d="M186 457L176 463C180.289 462.997 188.018 463.347 186 457z"/>
<path style="fill:#766559; stroke:none;" d="M173 463L173 464L181 464L173 463z"/>
</svg>
